<?xml version="1.0" encoding="UTF-8" standalone="no"?>
<!DOCTYPE svg PUBLIC "-//W3C//DTD SVG 1.1//EN" "http://www.w3.org/Graphics/SVG/1.1/DTD/svg11.dtd">
<svg version="1.1" xmlns="http://www.w3.org/2000/svg" xmlns:xlink="http://www.w3.org/1999/xlink" preserveAspectRatio="xMidYMid meet" viewBox="0 0 640 640" width="640" height="640"><defs><path d="M515.33 243.78C515.33 243.78 509.95 222.85 488.45 197.18C489.88 191.92 497.05 165.62 509.95 118.27C461.57 133.32 434.69 141.69 429.31 143.36C429.31 143.36 402.43 122.43 388.1 120.06C383.56 112.29 360.86 73.45 320 3.52C276.99 76.67 253.1 117.31 248.32 125.44C248.32 125.44 233.98 132.03 205.31 143.36C200.29 141.21 175.21 130.46 130.05 111.1C144.03 161.68 151.79 189.77 153.34 195.39C153.34 195.39 133.63 223.49 130.05 245.57C121.8 250.23 80.59 273.55 6.4 315.52C78.44 357.49 118.46 380.81 126.46 385.47C126.46 385.47 136.64 417.15 147.97 432.13C146.18 437.27 137.22 462.98 121.09 509.25C170.55 497.38 198.02 490.79 203.52 489.47C203.52 489.47 242.37 516.99 257.28 521.73C261.34 529.38 281.65 567.63 318.21 636.48C359.07 567.63 381.76 529.38 386.3 521.73C386.3 521.73 427.52 503.81 440.06 494.85C445.44 496.28 472.32 503.45 520.7 516.35C505.65 466.85 497.29 439.36 495.62 433.86C495.62 433.86 517.12 399.17 524.29 381.89C531.58 377.46 568.01 355.34 633.6 315.52C562.64 272.47 523.21 248.56 515.33 243.78ZM330.75 449.98C330.75 449.98 255.04 459.84 228.61 424.9C234.52 422.75 281.83 405.54 287.74 403.39C287.74 403.39 377.79 373.82 379.14 342.4C379.14 342.4 406.46 291.78 368.38 247.36C368.15 246.76 366.95 243.78 364.8 238.4C360.5 239.48 358.11 240.07 357.63 240.19C357.63 240.19 318.21 226.75 284.16 261.7C284.16 261.7 264.9 294.85 289.54 317.31C289.54 317.31 302.98 324.93 302.08 310.14C301.72 308.17 298.85 292.4 298.5 290.43C298.5 290.43 353.15 264.45 354.05 347.84C354.05 347.84 309.7 391.74 262.66 363.97C262.66 363.97 203.07 311.04 214.27 268.93C214.15 267.49 213.56 260.33 212.48 247.42L251.9 213.38L303.87 182.91L321.79 186.5L337.92 179.33L346.88 190.08C376.99 197.61 393.71 201.79 397.06 202.62C397.06 202.62 441.41 248.32 441.86 267.2C441.86 267.14 474.11 366.14 407.81 419.52C392.4 425.61 374.21 447.3 330.75 449.98Z" id="b10ztIWg3Z"></path></defs><g><g><g><g><use xlink:href="#b10ztIWg3Z" opacity="1" fill-opacity="0" stroke="#806548" stroke-width="3" stroke-opacity="1"></use></g></g></g></g></svg>